<svg xmlns="http://www.w3.org/2000/svg" viewBox="0 0 900 280" width="900" height="280" role="img" aria-label="Case: man-hours per technician on every vessel. Each vessel carries a QR code that technicians scan when they board and leave; their hours add up on their own, for billing the client and paying the crew."><style>.tel{animation:tel 8s infinite}@keyframes tel{0%{transform:translateY(-14px);opacity:0}8%{opacity:1}18%,80%{transform:translateY(0);opacity:1}90%,100%{opacity:0}}.haz{animation:haz 1s ease-in-out infinite alternate}@keyframes haz{to{transform:translateY(48px)}}.marca{animation:marca 8s infinite}@keyframes marca{0%{opacity:0}20%{opacity:0}22%{opacity:1}34%{opacity:1}36%{opacity:0}50%{opacity:0}52%{opacity:1}64%{opacity:1}66%{opacity:0}100%{opacity:0}}.f0{animation:f0 8s infinite}@keyframes f0{0%{opacity:0}22%{opacity:0}24%{opacity:1}92%{opacity:1}94%{opacity:0}100%{opacity:0}}.f1{animation:f1 8s infinite}@keyframes f1{0%{opacity:0}52%{opacity:0}54%{opacity:1}92%{opacity:1}94%{opacity:0}100%{opacity:0}}.f2{animation:f2 8s infinite}@keyframes f2{0%{opacity:0}60%{opacity:0}62%{opacity:1}92%{opacity:1}94%{opacity:0}100%{opacity:0}}.f3{animation:f3 8s infinite}@keyframes f3{0%{opacity:0}68%{opacity:0}70%{opacity:1}92%{opacity:1}94%{opacity:0}100%{opacity:0}}@media (prefers-reduced-motion: reduce){*{animation:none!important}}</style><defs><clipPath id="marco"><rect width="900" height="280" rx="14"/></clipPath></defs><g clip-path="url(#marco)"><rect width="900" height="280" fill="#1f1e1d"/><circle cx="11" cy="31" r="0.81" fill="#f4f4f2" opacity="0.34"/><circle cx="125" cy="31" r="0.69" fill="#f4f4f2" opacity="0.37"/><circle cx="133" cy="207" r="1.03" fill="#f4f4f2" opacity="0.15"/><circle cx="482" cy="125" r="0.83" fill="#f4f4f2" opacity="0.45"/><circle cx="84" cy="6" r="1.25" fill="#f4f4f2" opacity="0.24"/><circle cx="179" cy="92" r="0.79" fill="#f4f4f2" opacity="0.43"/><circle cx="189" cy="61" r="0.97" fill="#f4f4f2" opacity="0.29"/><circle cx="858" cy="235" r="0.78" fill="#f4f4f2" opacity="0.17"/><circle cx="753" cy="277" r="0.52" fill="#f4f4f2" opacity="0.36"/><circle cx="782" cy="182" r="0.67" fill="#f4f4f2" opacity="0.38"/><circle cx="657" cy="54" r="1.01" fill="#f4f4f2" opacity="0.18"/><circle cx="37" cy="94" r="0.77" fill="#f4f4f2" opacity="0.24"/><circle cx="582" cy="234" r="1.27" fill="#f4f4f2" opacity="0.44"/><circle cx="894" cy="221" r="0.75" fill="#f4f4f2" opacity="0.16"/><circle cx="561" cy="153" r="1.04" fill="#f4f4f2" opacity="0.13"/><circle cx="174" cy="258" r="0.98" fill="#f4f4f2" opacity="0.34"/><circle cx="86" cy="112" r="1.23" fill="#f4f4f2" opacity="0.33"/><circle cx="892" cy="55" r="0.86" fill="#f4f4f2" opacity="0.38"/><circle cx="400" cy="221" r="0.95" fill="#f4f4f2" opacity="0.14"/><circle cx="89" cy="275" r="0.60" fill="#f4f4f2" opacity="0.17"/><circle cx="302" cy="200" r="1.18" fill="#f4f4f2" opacity="0.27"/><circle cx="448" cy="221" r="0.72" fill="#f4f4f2" opacity="0.23"/><circle cx="551" cy="178" r="0.53" fill="#f4f4f2" opacity="0.14"/><circle cx="124" cy="203" r="1.05" fill="#f4f4f2" opacity="0.44"/><circle cx="691" cy="71" r="1.11" fill="#f4f4f2" opacity="0.44"/><circle cx="314" cy="3" r="0.80" fill="#f4f4f2" opacity="0.20"/><circle cx="159" cy="13" r="0.60" fill="#f4f4f2" opacity="0.40"/><circle cx="45" cy="172" r="0.67" fill="#f4f4f2" opacity="0.17"/><circle cx="739" cy="84" r="0.65" fill="#f4f4f2" opacity="0.26"/><circle cx="625" cy="147" r="1.19" fill="#f4f4f2" opacity="0.24"/><circle cx="472" cy="201" r="0.87" fill="#f4f4f2" opacity="0.35"/><circle cx="420" cy="37" r="0.60" fill="#f4f4f2" opacity="0.37"/><circle cx="670" cy="264" r="1.05" fill="#f4f4f2" opacity="0.30"/><circle cx="150" cy="239" r="0.60" fill="#f4f4f2" opacity="0.25"/><circle cx="127" cy="107" r="0.75" fill="#f4f4f2" opacity="0.25"/><circle cx="640" cy="152" r="0.69" fill="#f4f4f2" opacity="0.37"/><circle cx="662" cy="232" r="0.53" fill="#f4f4f2" opacity="0.32"/><circle cx="806" cy="72" r="0.66" fill="#f4f4f2" opacity="0.38"/><circle cx="327" cy="112" r="1.15" fill="#f4f4f2" opacity="0.23"/><circle cx="179" cy="60" r="0.78" fill="#f4f4f2" opacity="0.34"/><circle cx="331" cy="216" r="0.55" fill="#f4f4f2" opacity="0.19"/><circle cx="562" cy="134" r="0.90" fill="#f4f4f2" opacity="0.43"/><circle cx="250" cy="51" r="0.53" fill="#f4f4f2" opacity="0.27"/><circle cx="267" cy="133" r="0.50" fill="#f4f4f2" opacity="0.10"/><circle cx="342" cy="212" r="0.74" fill="#f4f4f2" opacity="0.42"/><circle cx="521" cy="113" r="1.12" fill="#f4f4f2" opacity="0.18"/><circle cx="545" cy="237" r="0.93" fill="#f4f4f2" opacity="0.21"/><circle cx="86" cy="161" r="0.65" fill="#f4f4f2" opacity="0.23"/><circle cx="488" cy="264" r="1.04" fill="#f4f4f2" opacity="0.28"/><circle cx="773" cy="86" r="0.81" fill="#f4f4f2" opacity="0.34"/><circle cx="499" cy="62" r="0.83" fill="#f4f4f2" opacity="0.39"/><circle cx="218" cy="198" r="0.54" fill="#f4f4f2" opacity="0.43"/><circle cx="616" cy="91" r="1.29" fill="#f4f4f2" opacity="0.38"/><circle cx="56" cy="70" r="0.89" fill="#f4f4f2" opacity="0.45"/><circle cx="127" cy="13" r="0.75" fill="#f4f4f2" opacity="0.12"/><circle cx="368" cy="151" r="0.85" fill="#f4f4f2" opacity="0.15"/><circle cx="21" cy="225" r="0.85" fill="#f4f4f2" opacity="0.27"/><circle cx="430" cy="192" r="1.22" fill="#f4f4f2" opacity="0.39"/><circle cx="654" cy="95" r="0.64" fill="#f4f4f2" opacity="0.13"/><circle cx="773" cy="16" r="0.96" fill="#f4f4f2" opacity="0.42"/><circle cx="290" cy="109" r="0.83" fill="#f4f4f2" opacity="0.43"/><circle cx="616" cy="235" r="0.53" fill="#f4f4f2" opacity="0.36"/><circle cx="406" cy="112" r="1.15" fill="#f4f4f2" opacity="0.36"/><circle cx="819" cy="207" r="1.23" fill="#f4f4f2" opacity="0.25"/><circle cx="500" cy="220" r="0.86" fill="#f4f4f2" opacity="0.15"/><circle cx="527" cy="244" r="1.20" fill="#f4f4f2" opacity="0.14"/><circle cx="343" cy="64" r="0.77" fill="#f4f4f2" opacity="0.44"/><circle cx="379" cy="88" r="0.72" fill="#f4f4f2" opacity="0.25"/><circle cx="603" cy="96" r="0.65" fill="#f4f4f2" opacity="0.18"/><circle cx="234" cy="254" r="0.64" fill="#f4f4f2" opacity="0.36"/><circle cx="97" cy="220" r="0.71" fill="#f4f4f2" opacity="0.37"/><circle cx="389" cy="22" r="0.58" fill="#f4f4f2" opacity="0.38"/><circle cx="488" cy="136" r="0.78" fill="#f4f4f2" opacity="0.34"/><circle cx="434" cy="17" r="0.98" fill="#f4f4f2" opacity="0.21"/><circle cx="762" cy="154" r="1.12" fill="#f4f4f2" opacity="0.14"/><circle cx="636" cy="171" r="1.18" fill="#f4f4f2" opacity="0.41"/><circle cx="496" cy="166" r="1.11" fill="#f4f4f2" opacity="0.19"/><circle cx="490" cy="220" r="0.98" fill="#f4f4f2" opacity="0.29"/><text x="32" y="50" font-family="ui-monospace, SFMono-Regular, Menlo, Consolas, monospace" font-size="10" fill="#93938f" letter-spacing="1.6">CASE · FIELD OPERATIONS</text><text x="32" y="84" font-family="system-ui, -apple-system, 'Segoe UI', Roboto, sans-serif" font-size="24" fill="#f4f4f2" font-weight="700" letter-spacing="-0.3">Man-hours per technician,</text><text x="32" y="112" font-family="system-ui, -apple-system, 'Segoe UI', Roboto, sans-serif" font-size="24" fill="#f4f4f2" font-weight="700" letter-spacing="-0.3">on every vessel</text><text x="32" y="150" font-family="system-ui, -apple-system, 'Segoe UI', Roboto, sans-serif" font-size="13.5" fill="#93938f">A service company sends technicians to its</text><text x="32" y="170" font-family="system-ui, -apple-system, 'Segoe UI', Roboto, sans-serif" font-size="13.5" fill="#93938f">clients' vessels and bills by the man-hour.</text><text x="32" y="190" font-family="system-ui, -apple-system, 'Segoe UI', Roboto, sans-serif" font-size="13.5" fill="#93938f">Every vessel carries a QR code: they scan</text><text x="32" y="210" font-family="system-ui, -apple-system, 'Segoe UI', Roboto, sans-serif" font-size="13.5" fill="#93938f">it when they board and when they leave, and</text><text x="32" y="230" font-family="system-ui, -apple-system, 'Segoe UI', Roboto, sans-serif" font-size="13.5" fill="#93938f">the hours add up on their own.</text><text x="32" y="258" font-family="ui-monospace, SFMono-Regular, Menlo, Consolas, monospace" font-size="10.5" fill="#6a6a66">React Native · Node · Prisma · MySQL</text><text x="370" y="258" font-family="ui-monospace, SFMono-Regular, Menlo, Consolas, monospace" font-size="11" fill="#ffd166" text-anchor="end">read the case →</text><rect x="420" y="20" width="460" height="240" rx="12" fill="#1b1a19" stroke="#3a3936"/><path d="M450,176 L650,176 L626,212 L474,212 Z" fill="#2c2b29" stroke="#93938f" stroke-width="1.2"/><rect x="512" y="128" width="84" height="48" fill="#262523" stroke="#93938f" stroke-width="1.2"/><line x1="554" y1="128" x2="554" y2="96" stroke="#93938f" stroke-width="1.5"/><rect x="526" y="136" width="34" height="34" rx="2" fill="#f4f4f2"/><rect x="528.5" y="138.5" width="2.25" height="2.25" fill="#1f1e1d"/><rect x="530.75" y="138.5" width="2.25" height="2.25" fill="#1f1e1d"/><rect x="533.0" y="138.5" width="2.25" height="2.25" fill="#1f1e1d"/><rect x="535.25" y="138.5" width="2.25" height="2.25" fill="#1f1e1d"/><rect x="537.5" y="138.5" width="2.25" height="2.25" fill="#1f1e1d"/><rect x="539.75" y="138.5" width="2.25" height="2.25" fill="#1f1e1d"/><rect x="542.0" y="138.5" width="2.25" height="2.25" fill="#1f1e1d"/><rect x="548.75" y="138.5" width="2.25" height="2.25" fill="#1f1e1d"/><rect x="553.25" y="138.5" width="2.25" height="2.25" fill="#1f1e1d"/><rect x="555.5" y="138.5" width="2.25" height="2.25" fill="#1f1e1d"/><rect x="528.5" y="140.75" width="2.25" height="2.25" fill="#1f1e1d"/><rect x="542.0" y="140.75" width="2.25" height="2.25" fill="#1f1e1d"/><rect x="546.5" y="140.75" width="2.25" height="2.25" fill="#1f1e1d"/><rect x="555.5" y="140.75" width="2.25" height="2.25" fill="#1f1e1d"/><rect x="528.5" y="143.0" width="2.25" height="2.25" fill="#1f1e1d"/><rect x="533.0" y="143.0" width="2.25" height="2.25" fill="#1f1e1d"/><rect x="535.25" y="143.0" width="2.25" height="2.25" fill="#1f1e1d"/><rect x="537.5" y="143.0" width="2.25" height="2.25" fill="#1f1e1d"/><rect x="542.0" y="143.0" width="2.25" height="2.25" fill="#1f1e1d"/><rect x="546.5" y="143.0" width="2.25" height="2.25" fill="#1f1e1d"/><rect x="548.75" y="143.0" width="2.25" height="2.25" fill="#1f1e1d"/><rect x="551.0" y="143.0" width="2.25" height="2.25" fill="#1f1e1d"/><rect x="555.5" y="143.0" width="2.25" height="2.25" fill="#1f1e1d"/><rect x="528.5" y="145.25" width="2.25" height="2.25" fill="#1f1e1d"/><rect x="533.0" y="145.25" width="2.25" height="2.25" fill="#1f1e1d"/><rect x="535.25" y="145.25" width="2.25" height="2.25" fill="#1f1e1d"/><rect x="537.5" y="145.25" width="2.25" height="2.25" fill="#1f1e1d"/><rect x="542.0" y="145.25" width="2.25" height="2.25" fill="#1f1e1d"/><rect x="551.0" y="145.25" width="2.25" height="2.25" fill="#1f1e1d"/><rect x="553.25" y="145.25" width="2.25" height="2.25" fill="#1f1e1d"/><rect x="555.5" y="145.25" width="2.25" height="2.25" fill="#1f1e1d"/><rect x="528.5" y="147.5" width="2.25" height="2.25" fill="#1f1e1d"/><rect x="542.0" y="147.5" width="2.25" height="2.25" fill="#1f1e1d"/><rect x="546.5" y="147.5" width="2.25" height="2.25" fill="#1f1e1d"/><rect x="555.5" y="147.5" width="2.25" height="2.25" fill="#1f1e1d"/><rect x="528.5" y="149.75" width="2.25" height="2.25" fill="#1f1e1d"/><rect x="530.75" y="149.75" width="2.25" height="2.25" fill="#1f1e1d"/><rect x="533.0" y="149.75" width="2.25" height="2.25" fill="#1f1e1d"/><rect x="535.25" y="149.75" width="2.25" height="2.25" fill="#1f1e1d"/><rect x="537.5" y="149.75" width="2.25" height="2.25" fill="#1f1e1d"/><rect x="539.75" y="149.75" width="2.25" height="2.25" fill="#1f1e1d"/><rect x="542.0" y="149.75" width="2.25" height="2.25" fill="#1f1e1d"/><rect x="546.5" y="149.75" width="2.25" height="2.25" fill="#1f1e1d"/><rect x="551.0" y="149.75" width="2.25" height="2.25" fill="#1f1e1d"/><rect x="555.5" y="149.75" width="2.25" height="2.25" fill="#1f1e1d"/><rect x="546.5" y="152.0" width="2.25" height="2.25" fill="#1f1e1d"/><rect x="548.75" y="152.0" width="2.25" height="2.25" fill="#1f1e1d"/><rect x="551.0" y="152.0" width="2.25" height="2.25" fill="#1f1e1d"/><rect x="528.5" y="154.25" width="2.25" height="2.25" fill="#1f1e1d"/><rect x="530.75" y="154.25" width="2.25" height="2.25" fill="#1f1e1d"/><rect x="535.25" y="154.25" width="2.25" height="2.25" fill="#1f1e1d"/><rect x="539.75" y="154.25" width="2.25" height="2.25" fill="#1f1e1d"/><rect x="542.0" y="154.25" width="2.25" height="2.25" fill="#1f1e1d"/><rect x="544.25" y="154.25" width="2.25" height="2.25" fill="#1f1e1d"/><rect x="548.75" y="154.25" width="2.25" height="2.25" fill="#1f1e1d"/><rect x="553.25" y="154.25" width="2.25" height="2.25" fill="#1f1e1d"/><rect x="555.5" y="154.25" width="2.25" height="2.25" fill="#1f1e1d"/><rect x="533.0" y="156.5" width="2.25" height="2.25" fill="#1f1e1d"/><rect x="537.5" y="156.5" width="2.25" height="2.25" fill="#1f1e1d"/><rect x="544.25" y="156.5" width="2.25" height="2.25" fill="#1f1e1d"/><rect x="551.0" y="156.5" width="2.25" height="2.25" fill="#1f1e1d"/><rect x="553.25" y="156.5" width="2.25" height="2.25" fill="#1f1e1d"/><rect x="528.5" y="158.75" width="2.25" height="2.25" fill="#1f1e1d"/><rect x="530.75" y="158.75" width="2.25" height="2.25" fill="#1f1e1d"/><rect x="533.0" y="158.75" width="2.25" height="2.25" fill="#1f1e1d"/><rect x="535.25" y="158.75" width="2.25" height="2.25" fill="#1f1e1d"/><rect x="537.5" y="158.75" width="2.25" height="2.25" fill="#1f1e1d"/><rect x="539.75" y="158.75" width="2.25" height="2.25" fill="#1f1e1d"/><rect x="542.0" y="158.75" width="2.25" height="2.25" fill="#1f1e1d"/><rect x="546.5" y="158.75" width="2.25" height="2.25" fill="#1f1e1d"/><rect x="553.25" y="158.75" width="2.25" height="2.25" fill="#1f1e1d"/><rect x="555.5" y="158.75" width="2.25" height="2.25" fill="#1f1e1d"/><rect x="528.5" y="161.0" width="2.25" height="2.25" fill="#1f1e1d"/><rect x="542.0" y="161.0" width="2.25" height="2.25" fill="#1f1e1d"/><rect x="548.75" y="161.0" width="2.25" height="2.25" fill="#1f1e1d"/><rect x="551.0" y="161.0" width="2.25" height="2.25" fill="#1f1e1d"/><rect x="555.5" y="161.0" width="2.25" height="2.25" fill="#1f1e1d"/><rect x="528.5" y="163.25" width="2.25" height="2.25" fill="#1f1e1d"/><rect x="533.0" y="163.25" width="2.25" height="2.25" fill="#1f1e1d"/><rect x="535.25" y="163.25" width="2.25" height="2.25" fill="#1f1e1d"/><rect x="537.5" y="163.25" width="2.25" height="2.25" fill="#1f1e1d"/><rect x="542.0" y="163.25" width="2.25" height="2.25" fill="#1f1e1d"/><rect x="544.25" y="163.25" width="2.25" height="2.25" fill="#1f1e1d"/><rect x="546.5" y="163.25" width="2.25" height="2.25" fill="#1f1e1d"/><rect x="551.0" y="163.25" width="2.25" height="2.25" fill="#1f1e1d"/><rect x="528.5" y="165.5" width="2.25" height="2.25" fill="#1f1e1d"/><rect x="530.75" y="165.5" width="2.25" height="2.25" fill="#1f1e1d"/><rect x="533.0" y="165.5" width="2.25" height="2.25" fill="#1f1e1d"/><rect x="535.25" y="165.5" width="2.25" height="2.25" fill="#1f1e1d"/><rect x="537.5" y="165.5" width="2.25" height="2.25" fill="#1f1e1d"/><rect x="539.75" y="165.5" width="2.25" height="2.25" fill="#1f1e1d"/><rect x="542.0" y="165.5" width="2.25" height="2.25" fill="#1f1e1d"/><rect x="546.5" y="165.5" width="2.25" height="2.25" fill="#1f1e1d"/><rect x="548.75" y="165.5" width="2.25" height="2.25" fill="#1f1e1d"/><rect x="553.25" y="165.5" width="2.25" height="2.25" fill="#1f1e1d"/><rect x="555.5" y="165.5" width="2.25" height="2.25" fill="#1f1e1d"/><text x="578" y="166" font-family="ui-monospace, SFMono-Regular, Menlo, Consolas, monospace" font-size="10" fill="#93938f">E-03</text><path d="M420,220.0 428,221.2 436,222.1 444,222.5 452,222.3 460,221.5 468,220.4 476,219.1 484,218.1 492,217.6 500,217.6 508,218.2 516,219.3 524,220.5 532,221.6 540,222.3 548,222.5 556,222.0 564,221.0 572,219.8 580,218.6 588,217.8 596,217.5 604,217.8 612,218.7 620,219.8 628,221.1 636,222.0 644,222.5 652,222.3 660,221.6 668,220.5 676,219.3 684,218.2 692,217.6 700,217.6 708,218.1 716,219.1 724,220.4 732,221.5 740,222.3 748,222.5 756,222.1 764,221.2 772,220.0 780,218.8 788,217.9 796,217.5 804,217.7 812,218.5 820,219.7 828,220.9 836,221.9 844,222.4 852,222.4 860,221.7 868,220.7 876,219.4" fill="none" stroke="#93938f" stroke-width="1.1" opacity="0.5"/><path d="M420,234.1 428,234.5 436,234.3 444,233.5 452,232.4 460,231.1 468,230.1 476,229.6 484,229.6 492,230.2 500,231.3 508,232.5 516,233.6 524,234.3 532,234.5 540,234.0 548,233.0 556,231.8 564,230.6 572,229.8 580,229.5 588,229.8 596,230.7 604,231.8 612,233.1 620,234.0 628,234.5 636,234.3 644,233.6 652,232.5 660,231.3 668,230.2 676,229.6 684,229.6 692,230.1 700,231.1 708,232.4 716,233.5 724,234.3 732,234.5 740,234.1 748,233.2 756,232.0 764,230.8 772,229.9 780,229.5 788,229.7 796,230.5 804,231.7 812,232.9 820,233.9 828,234.4 836,234.4 844,233.7 852,232.7 860,231.4 868,230.3 876,229.6" fill="none" stroke="#93938f" stroke-width="1.1" opacity="0.3"/><path d="M420,246.3 428,245.5 436,244.4 444,243.1 452,242.1 460,241.6 468,241.6 476,242.2 484,243.3 492,244.5 500,245.6 508,246.3 516,246.5 524,246.0 532,245.0 540,243.8 548,242.6 556,241.8 564,241.5 572,241.8 580,242.7 588,243.8 596,245.1 604,246.0 612,246.5 620,246.3 628,245.6 636,244.5 644,243.3 652,242.2 660,241.6 668,241.6 676,242.1 684,243.1 692,244.4 700,245.5 708,246.3 716,246.5 724,246.1 732,245.2 740,244.0 748,242.8 756,241.9 764,241.5 772,241.7 780,242.5 788,243.7 796,244.9 804,245.9 812,246.4 820,246.4 828,245.7 836,244.7 844,243.4 852,242.3 860,241.6 868,241.5 876,242.0" fill="none" stroke="#93938f" stroke-width="1.1" opacity="0.18"/><g class="tel"><rect x="616" y="58" width="40" height="70" rx="7" fill="#111" stroke="#f4f4f2" stroke-width="1.5"/><rect class="haz" x="622" y="70" width="28" height="2" fill="#ffd166"/></g><g class="marca"><circle cx="636" cy="44" r="9" fill="#ffd166"/><path d="M631,44 l3.5,3.5 l6,-7" fill="none" stroke="#1f1e1d" stroke-width="2" stroke-linecap="round" stroke-linejoin="round"/></g><rect x="682" y="40" width="182" height="188" rx="8" fill="#1f1e1d" stroke="#3a3936"/><text x="696" y="62" font-family="ui-monospace, SFMono-Regular, Menlo, Consolas, monospace" font-size="9.5" fill="#93938f" letter-spacing="1">R. QUISPE · E-03</text><g class="f0"><text x="696" y="90" font-family="ui-monospace, SFMono-Regular, Menlo, Consolas, monospace" font-size="11" fill="#93938f">boarded</text><text x="850" y="90" font-family="ui-monospace, SFMono-Regular, Menlo, Consolas, monospace" font-size="11" fill="#f4f4f2" text-anchor="end">06:42</text></g><g class="f1"><text x="696" y="116" font-family="ui-monospace, SFMono-Regular, Menlo, Consolas, monospace" font-size="11" fill="#93938f">left</text><text x="850" y="116" font-family="ui-monospace, SFMono-Regular, Menlo, Consolas, monospace" font-size="11" fill="#f4f4f2" text-anchor="end">14:10</text></g><line x1="696" y1="132" x2="850" y2="132" stroke="#3a3936"/><g class="f2"><text x="696" y="158" font-family="ui-monospace, SFMono-Regular, Menlo, Consolas, monospace" font-size="11" fill="#93938f">on board</text><text x="850" y="158" font-family="ui-monospace, SFMono-Regular, Menlo, Consolas, monospace" font-size="13" fill="#ffd166" font-weight="700" text-anchor="end">7 h 28 min</text></g><g class="f3"><text x="696" y="190" font-family="ui-monospace, SFMono-Regular, Menlo, Consolas, monospace" font-size="10" fill="#6a6a66">this week</text><text x="850" y="190" font-family="ui-monospace, SFMono-Regular, Menlo, Consolas, monospace" font-size="11" fill="#f4f4f2" text-anchor="end">41 HH</text></g><g class="f3"><text x="696" y="210" font-family="ui-monospace, SFMono-Regular, Menlo, Consolas, monospace" font-size="10" fill="#6a6a66">billed to client</text><text x="850" y="210" font-family="ui-monospace, SFMono-Regular, Menlo, Consolas, monospace" font-size="11" fill="#f4f4f2" text-anchor="end">E-03</text></g></g><rect x="0.5" y="0.5" width="899" height="279" rx="14" fill="none" stroke="#3a3936"/></svg>
